<?xml version="1.0" encoding="utf-8"?>
<!-- Generator: Adobe Illustrator 23.0.3, SVG Export Plug-In . SVG Version: 6.00 Build 0)  -->
<svg version="1.1" id="Layer_1" xmlns="http://www.w3.org/2000/svg" xmlns:xlink="http://www.w3.org/1999/xlink" x="0px" y="0px"
	 viewBox="0 0 1639.8 425.2" style="enable-background:new 0 0 1639.8 425.2;" xml:space="preserve">
<style type="text/css">
	.st0{fill:#FFF1D6;}
	.st1{fill:#59A1A5;}
	.st2{fill:#FFF7E8;}
	.st3{fill:#FF9E5E;}
	.st4{fill:#FF7893;}
	.st5{fill:#FFD88F;}
	.st6{fill:#98DBD1;}
	.st7{fill:#B4E8E0;}
	.st8{fill:#050A30;}
</style>
<g>
	<path class="st0" d="M131.4,99.2c2.9,0.3,5,1.9,5.3,5.1c0.1,1.4,0,2.7,0,4.1c0,93.5,0,187,0,280.5c0,1.6,0,3.2,0,5
		c1.7,0,2.9,0,4.2,0c56.4,0,112.7,0,169.1,0c22.1,0,37.4-15.3,37.6-37.4c0-6.2-0.1-12.5,0.1-18.7c0.1-3.8,2.4-6,5.8-5.9
		c3.2,0.1,5.2,2.3,5.4,5.9c0.1,2.4,0,4.9,0,7.5c3.2,0,5.9,0,8.5,0c10.3-0.2,17.6-7.5,17.6-17.9c0.1-11.1,0-22.2,0-33.4
		c0-1.3,0-2.6,0-4.7c-8.1,6.4-17.1,6.1-26.1,6c0,4.7,0.1,8.9,0,13c-0.1,3.3-2.1,5.1-5.2,5.2c-3.1,0.2-5.3-1.4-5.8-4.7
		c-0.2-1.5-0.2-3-0.2-4.5c0-78,0-156,0-234c0-22.7-15.3-37.9-37.9-37.9c-56.2,0-112.5,0-168.7,0c-1.3,0-2.6,0-4.2,0
		c0,1.9,0,3.2,0,4.6c0,12.5,0,25,0,37.5c0,3.6-2.5,5.9-5.3,6.2"/>
	<path class="st1" d="M130.7,80.6c-0.2,0-1.1-0.1-1.3-0.2c-3.2-0.9-4-3.4-4-6.4c0-12.5,0-25,0-37.5c0-1.3,0-2.6,0-4.1
		c-7.5,0-14.3-0.1-21.2,0c-15.1,0.3-28.4,10-33.2,24.3c-1.2,3.4-1.6,7.1-2.4,11.2c4.9,0,8.9-0.2,12.8,0.1c3.3,0.2,6.8,0.6,9.9,1.7
		c9.1,3.5,14.5,13.3,12.8,22.6c-1.9,10.4-10.1,17.5-21,17.8c-4.6,0.1-9.2,0-13.8,0c0,13.8,0,27,0,40.6c5,0,9.8,0,14.5,0
		c5.1,0,9.5,1.8,13.3,5.2c6.6,5.8,8.9,14.6,5.9,22.8c-3,8.3-10.5,13.8-19.4,14c-4.8,0.1-9.7,0-14.5,0c0,13.7,0,26.9,0,40.5
		c4.5,0,8.9,0,13.2,0c12.6,0.1,22,9.2,22,21.2c-0.1,11.8-9.4,20.8-21.8,20.9c-4.3,0-8.7,0-13.3,0c0,13.8,0,27,0,40.6
		c4.7,0,9.2-0.1,13.7,0c9.4,0.3,16.3,4.6,19.9,13.4c5.7,13.8-4.2,28.1-19.7,28.9c-4.6,0.2-9.2,0-14.1,0c0.7,13.3,6.4,23.1,17,30.1
		c12.3,8,26,4.9,39.4,5.5c0-2,0-3.5,0-5c0-93.6,0-187.2,0-280.9c0-1.4-0.1-2.8,0.1-4.1c0.5-3,2.3-4.6,5.2-4.7"/>
	<path class="st2" d="M317.5,350.6c0-2.9,0-5.9,0-8.8v-81.4h0c0-63.3,0-126.7,0-190c0-22.7-15.3-37.9-37.9-37.9
		c-56.2,0-82.5,0-138.7,0c-1.3,0-2.6,0-4.2,0c0,1.9,0,3.2,0,4.6c0,12.5,0,25,0,37.5c0,1.7-0.6,3.2-1.5,4.2c-1,1.1-2.4,1.7-2.4,1.7
		c-0.7,0.2-1.3,0.3-1.3,0.3v18.5c0,0,2.8,0.4,4.1,1.9c0.8,1,1.1,2.1,1.2,3.2c0.1,1.4,0,2.7,0,4.1c0,93.5,0,187,0,280.5
		c0,1.6,0,3.2,0,5c1.7,0,2.9,0,4.2,0c56.4,0,82.7,0,139.1,0c22.1,0,37.4-15.3,37.6-37.4c0-0.9,0-1.8,0-2.7V350.6z"/>
</g>
<g>
	<g>
		<path d="M317.4,405.2c-72.8,0-145.5,0-218.2,0c-0.7-0.2-1.4-0.6-2.1-0.7c-18.9-3.3-34.1-17.7-38.2-36.2c-0.7-3.1-1-6.3-1.5-9.8
			c-3.6,0-7.1,0.1-10.6,0c-3-0.1-6.1-0.2-8.9-0.9c-10.1-2.7-16.5-12.4-15.2-22.9c1.2-10.3,9.9-18,20.9-18.4c4.6-0.2,9.2,0,13.9,0
			c0-13.7,0-27,0-40.6c-3.6,0-7,0-10.4,0c-2.5,0-5,0.1-7.5-0.3c-10.6-1.9-17.8-11.7-17-22.7c0.8-10.1,9.5-18.6,19.9-19
			c4.9-0.2,9.9,0,15,0c0-13.8,0-27,0-40.5c-4.4,0-8.5,0-12.6,0c-12.9-0.1-22.3-9.1-22.3-21.3c0.1-12,9.4-20.8,22.2-20.9
			c4.2,0,8.4,0,12.7,0c0-13.8,0-27,0-40.6c-4.7,0-9.1,0.1-13.4,0c-12.6-0.3-21.7-9.6-21.4-21.7c0.2-11.5,9.2-20.1,21.5-20.5
			c4.4-0.2,8.9,0,13.3,0c0.2-0.9,0.4-1.2,0.4-1.6c2.3-27,21.9-45.2,48.9-45.2c68,0,136,0,204,0c23.7,0,43.1,16.1,47.4,39.4
			c0.5,2.9,0.8,5.9,1.2,9.1c2.2,0,4.1,0.1,6.1,0c18.4-1,31.4,13.9,31,30.9c-0.5,27.5-0.1,55-0.1,82.5c0,48,0,96,0,144
			c0,17.1-12.2,29.2-29.3,29.5c-2.6,0-5.2,0-7.8,0c-0.1,1.5-0.3,2.4-0.3,3.4c-1.2,20.2-14.9,37.7-34.2,43.3
			C322.2,404,319.8,404.6,317.4,405.2z M69.2,275.6c0,13.8,0,27,0,40.6c4.7,0,9.2-0.1,13.7,0c9.4,0.3,16.3,4.6,19.9,13.4
			c5.7,13.8-4.2,28.1-19.7,28.9c-4.6,0.2-9.2,0-14.1,0c0.7,13.3,6.4,23.1,17,30.1c12.3,8,26,4.9,39.4,5.5c0-2,0-3.5,0-5
			c0-93.6,0-187.2,0-280.9c0-1.4-0.1-2.8,0.1-4.1c0.5-3.2,2.5-4.8,5.7-4.7c3.2,0.1,5.1,1.8,5.3,5.1c0.1,1.4,0,2.7,0,4.1
			c0,93.5,0,187,0,280.5c0,1.6,0,3.2,0,5c1.7,0,2.9,0,4.2,0c56.4,0,112.7,0,169.1,0c22.1,0,37.4-15.3,37.6-37.4
			c0-6.2-0.1-12.5,0.1-18.7c0.1-3.8,2.4-6,5.8-5.9c3.2,0.1,5.2,2.3,5.4,5.9c0.1,2.4,0,4.9,0,7.5c3.2,0,5.9,0,8.5,0
			c10.3-0.2,17.6-7.5,17.6-17.9c0.1-11.1,0-22.2,0-33.4c0-1.3,0-2.6,0-4.7c-8.1,6.4-17.1,6.1-26.1,6c0,4.7,0.1,8.9,0,13
			c-0.1,3.3-2.1,5.1-5.2,5.2c-3.1,0.2-5.3-1.4-5.8-4.7c-0.2-1.5-0.2-3-0.2-4.5c0-78,0-156,0-234c0-22.7-15.3-37.9-37.9-37.9
			c-56.2,0-112.5,0-168.7,0c-1.3,0-2.6,0-4.2,0c0,1.9,0,3.2,0,4.6c0,12.5,0,25,0,37.5c0,4.6-3.1,7.1-7.3,5.9c-3.2-0.9-4-3.4-4-6.4
			c0-12.5,0-25,0-37.5c0-1.3,0-2.6,0-4.1c-7.5,0-14.3-0.1-21.2,0c-15.1,0.3-28.4,10-33.2,24.3c-1.2,3.4-1.6,7.1-2.4,11.2
			c4.9,0,8.9-0.2,12.8,0.1c3.3,0.2,6.8,0.6,9.9,1.7c9.1,3.5,14.5,13.3,12.8,22.6c-1.9,10.4-10.1,17.5-21,17.8c-4.6,0.1-9.2,0-13.8,0
			c0,13.8,0,27,0,40.6c5,0,9.8,0,14.5,0c5.1,0,9.5,1.8,13.3,5.2c6.6,5.8,8.9,14.6,5.9,22.8c-3,8.3-10.5,13.8-19.4,14
			c-4.8,0.1-9.7,0-14.5,0c0,13.7,0,26.9,0,40.5c4.5,0,8.9,0,13.2,0c12.6,0.1,22,9.2,22,21.2c-0.1,11.8-9.4,20.8-21.8,20.9
			C78.2,275.6,73.8,275.6,69.2,275.6z M359.1,81.1c0,26.5,0,52.7,0,79.5c4-0.2,7.7,0,11.4-0.6c7.9-1.1,14.2-8,14.3-15.9
			c0.2-15.6,0.2-31.2,0-46.8c-0.1-8.5-7.3-15.6-15.8-16.1C365.9,81,362.8,81.1,359.1,81.1z M359,222.8c2.9,0,5.4,0,7.8,0
			c10.8-0.2,18-7.5,18.1-18.3c0.1-11.7,0-23.5,0-35.2c0-0.9-0.1-1.9-0.2-3.5c-7.9,6.4-16.8,6-25.7,6C359,189,359,205.6,359,222.8z
			 M359,284c3,0,5.9,0.1,8.7,0c10.3-0.5,17.1-7.6,17.2-17.9c0.1-11.5,0-23,0-34.4c0-0.9-0.1-1.9-0.2-3.4c-7.9,6.1-16.8,6-25.7,5.9
			C359,251,359,267.2,359,284z M63.6,79.2C63.6,79.3,63.6,79.3,63.6,79.2c-6.6,0-13.2-0.2-19.9,0.1c-6.1,0.2-10,4.5-9.9,10
			c0.1,5.4,4.1,9.5,9.9,9.6c13.1,0.2,26.2,0.1,39.3,0c4.2,0,7.4-2.1,9.2-6c2.9-6.6-1.7-13.4-9.5-13.7C76.4,79,70,79.2,63.6,79.2z
			 M63.5,347.2C63.5,347.2,63.5,347.2,63.5,347.2c6.6,0,13.2,0.2,19.9-0.1c5.8-0.3,9.7-4.6,9.7-9.9c-0.1-5.3-4.1-9.6-9.9-9.7
			c-13.2-0.2-26.5-0.1-39.7,0c-4,0-7.1,2.1-8.8,5.9c-2.9,6.6,1.7,13.4,9.4,13.7C50.5,347.4,57,347.2,63.5,347.2z M63.6,162.1
			c-6.5,0-13-0.1-19.5,0c-6,0.1-10.2,4-10.3,9.6c-0.1,5.7,4.1,9.9,10.3,10c12.9,0.1,25.7,0.1,38.6,0c6.1,0,10.4-4.4,10.3-10
			c-0.1-5.5-4.3-9.5-10.4-9.5C76.4,162,70,162.1,63.6,162.1z M63.1,264.4c6.5,0,13,0.1,19.5,0c6.2-0.1,10.5-4.2,10.4-9.8
			c0-5.6-4.4-9.7-10.6-9.8c-12.7-0.1-25.5-0.1-38.2,0c-6.2,0-10.4,4.2-10.4,9.9c0,5.7,4.2,9.6,10.6,9.7
			C50.7,264.4,56.9,264.4,63.1,264.4z"/>
		<path class="st3" d="M359.1,81.1c3.7,0,6.8-0.2,10,0c8.5,0.5,15.7,7.6,15.8,16.1c0.2,15.6,0.2,31.2,0,46.8
			c-0.1,7.9-6.4,14.8-14.3,15.9c-3.7,0.5-7.4,0.4-11.4,0.6C359.1,133.8,359.1,107.6,359.1,81.1z"/>
		<path class="st1" d="M359,222.8c0-17.2,0-33.8,0-51c8.9,0,17.9,0.4,25.7-6c0.1,1.7,0.2,2.6,0.2,3.5c0,11.7,0.1,23.5,0,35.2
			c-0.1,10.8-7.3,18.1-18.1,18.3C364.3,222.8,361.9,222.8,359,222.8z"/>
		<path class="st4" d="M359,284c0-16.7,0-33,0-49.9c8.9,0.2,17.8,0.3,25.7-5.9c0.1,1.6,0.2,2.5,0.2,3.4c0,11.5,0.1,23,0,34.4
			c-0.1,10.3-6.9,17.4-17.2,17.9C364.9,284.1,362.1,284,359,284z"/>
		<path class="st5" d="M359,345.5c0-16.7,0-33,0-49.9c8.9,0.2,17.8,0.3,25.7-5.9c0.1,1.6,0.2,2.5,0.2,3.4c0,11.5,0.1,23,0,34.4
			c-0.1,10.3-6.9,17.4-17.2,17.9C364.9,345.6,362.1,345.5,359,345.5z"/>
		<path class="st6" d="M63.6,79.2c6.4,0,12.7-0.2,19.1,0.1c7.8,0.3,12.4,7.1,9.5,13.7c-1.7,3.9-5,6-9.2,6c-13.1,0.1-26.2,0.2-39.3,0
			c-5.9-0.1-9.8-4.3-9.9-9.6c-0.1-5.5,3.9-9.7,9.9-10C50.4,79.1,57,79.3,63.6,79.2C63.6,79.3,63.6,79.3,63.6,79.2z"/>
		<path class="st6" d="M63.5,347.2c-6.5,0-13,0.2-19.5-0.1c-7.8-0.3-12.3-7.2-9.4-13.7c1.7-3.8,4.8-5.9,8.8-5.9
			c13.2-0.1,26.5-0.2,39.7,0c5.8,0.1,9.8,4.4,9.9,9.7c0.1,5.3-3.9,9.6-9.7,9.9C76.8,347.4,70.2,347.1,63.5,347.2
			C63.5,347.2,63.5,347.2,63.5,347.2z"/>
		<path class="st6" d="M63.6,162.1c6.4,0,12.7-0.1,19.1,0c6,0.1,10.2,4,10.4,9.5c0.1,5.6-4.2,10-10.3,10c-12.9,0.1-25.7,0.1-38.6,0
			c-6.2,0-10.4-4.3-10.3-10c0.1-5.5,4.2-9.5,10.3-9.6C50.6,162,57.1,162.1,63.6,162.1z"/>
		<path class="st6" d="M63.1,264.4c-6.2,0-12.5,0.1-18.7,0c-6.3-0.1-10.5-4-10.6-9.7c0-5.7,4.2-9.9,10.4-9.9
			c12.7-0.1,25.5-0.1,38.2,0c6.2,0,10.6,4.1,10.6,9.8c0,5.6-4.2,9.8-10.4,9.8C76.1,264.4,69.6,264.4,63.1,264.4z"/>
		<path d="M209.4,176.3c-21.4-19.6-20.4-49.3-3.2-67.3c16.9-17.5,45.1-18.6,63.4-2.7c18.1,15.7,23.6,47.7,0.1,69.8
			c4.6,3.1,9.5,5.9,13.8,9.5c16.6,13.7,25.2,31.5,26,53.1c0.1,4.2-1.7,6.6-5.3,6.7c-3.5,0.1-5.7-1.9-5.9-6.2
			c-0.5-15.8-6.2-29.4-17.2-40.7c-7.1-7.3-15.7-12.1-25.5-15.2c-4.9-1.5-6.2-6.8-2.6-9.8c1.1-0.9,2.6-1.5,3.9-2.3
			c12.3-7.3,18.9-21.1,16.9-35.4c-1.9-13.6-12.3-25-25.9-28.5c-16.8-4.3-34.3,4.5-40.8,20.6c-6.5,16.1-0.3,34.5,14.7,43.3
			c0.9,0.5,1.7,1,2.6,1.4c2.4,1.2,3.9,3.3,3,5.8c-0.7,1.8-2.3,3.8-4,4.7c-5.8,3.1-12.3,5-17.7,8.7C190,202.7,181.8,218,180.4,237
			c-0.1,1-0.1,2-0.2,3c-0.3,3.6-2.5,5.6-5.8,5.5c-3.3-0.1-5.4-2.3-5.4-5.9c0.1-8.6,1.6-16.9,4.8-24.9c6.5-16.3,17.5-28.6,33-36.9
			C207.7,177.4,208.4,176.9,209.4,176.3z"/>
		<path d="M239,294.2c-21,0-42,0-63,0c-4.4,0-6.5-1.8-6.7-5.4c-0.1-3.3,1.8-5.5,5-5.9c0.5-0.1,1,0,1.5,0c42.2,0,84.5,0,126.7,0
			c3.4,0,6,0.9,6.6,4.7c0.7,4.1-1.8,6.6-6.4,6.6c-18.4,0-36.7,0-55.1,0C244.7,294.2,241.9,294.2,239,294.2z"/>
		<path d="M239.4,331.3c-13.6,0-27.2,0-40.9,0c-4.4,0-6.5-1.8-6.6-5.4c0-3.2,1.4-5.2,4.7-5.7c1.2-0.2,2.5-0.2,3.7-0.2
			c25.9,0,51.7,0,77.6,0c6.4,0,8.7,1.5,8.6,5.7c0,4.2-2.2,5.6-8.7,5.6C265.1,331.3,252.3,331.3,239.4,331.3z"/>
	</g>
	<path class="st7" d="M62.8,79.2c6.4,0-8.3-0.2-1.9,0.1c7.8,0.3,12.4,7.1,9.5,13.7c-1.7,3.9-5,6-9.2,6c-13.1,0.1-5.2,0.2-18.3,0
		c-5.9-0.1-9.8-4.3-9.9-9.6c-0.1-5.5,3.9-9.7,9.9-10C49.5,79.1,56.1,79.3,62.8,79.2C62.8,79.3,62.8,79.3,62.8,79.2z"/>
	<path class="st7" d="M62.7,347.2c-6.5,0-13,0.2-19.5-0.1c-7.8-0.3-12.3-7.2-9.4-13.7c1.7-3.8,4.8-5.9,8.8-5.9
		c13.2-0.1,5.5-0.2,18.7,0c5.8,0.1,9.8,4.4,9.9,9.7c0.1,5.3-3.9,9.6-9.7,9.9C54.9,347.4,69.3,347.1,62.7,347.2
		C62.7,347.2,62.7,347.2,62.7,347.2z"/>
	<path class="st7" d="M62.7,162.1c6.4,0-8.3-0.1-1.9,0c6,0.1,10.2,4,10.4,9.5c0.1,5.6-4.2,10-10.3,10c-12.9,0.1-4.7,0.1-17.6,0
		c-6.2,0-10.4-4.3-10.3-10c0.1-5.5,4.2-9.5,10.3-9.6C49.8,162,56.2,162.1,62.7,162.1z"/>
	<path class="st7" d="M62.3,264.4c-6.2,0-12.5,0.1-18.7,0c-6.3-0.1-10.5-4-10.6-9.7c0-5.7,4.2-9.9,10.4-9.9c12.7-0.1,4.5-0.1,17.2,0
		c6.2,0,10.6,4.1,10.6,9.8c0,5.6-4.2,9.8-10.4,9.8C54.3,264.4,68.8,264.4,62.3,264.4z"/>
</g>
<g id="nnAHEv_1_">
	<g>
		<path class="st8" d="M870.7,136.3c0-4.9,0.2-9.1,0-13.3c-0.9-17.2-1.9-34.4-2.7-51.6c-0.2-3.7-0.2-7.5,0.5-11.2
			c1.3-7.1,7.1-11.6,14.3-11.9c4.5-0.2,8.8,0.1,12.8,2.4c4.2,2.4,6.3,6.1,7.1,10.6c0.5,2.8,0.7,5.8,0.7,8.7c0,38.6,0,77.1,0,115.7
			c0,3-0.3,6-1,8.9c-1.7,6.7-6.5,10.4-13.1,11.4c-6.4,0.9-13,1.1-19.2-1.5c-4.8-2-8.4-5.4-10.7-10c-6.1-12.3-12.1-24.7-18-37
			c-8.8-18.3-17.6-36.6-26.4-54.8c-0.2-0.4-0.5-0.8-1.2-1.8c-0.1,1.5-0.2,2.3-0.2,3c0.9,23.7,1.8,47.4,2.7,71.2
			c0.2,4.9,0.6,9.8,0.6,14.7c0,10.4-6.1,16.4-16.5,16.6c-6.3,0.2-12.1-1.1-15.7-6.8c-1.6-2.5-2.7-5.7-2.8-8.6
			c-0.4-9.4-0.2-18.8-0.3-28.2c0-31.2-0.1-62.5-0.1-93.7c0-2.5,0-5,0.5-7.5c1.5-7.3,6.7-12.5,14.5-13c7-0.5,14.2-0.4,21.2,0.2
			c6.9,0.6,12.2,4.4,15.4,10.6c4.5,8.7,8.8,17.5,13.1,26.4c7.6,15.7,15,31.4,22.6,47C869.2,133.8,869.9,134.8,870.7,136.3z"/>
		<path class="st8" d="M618.3,128.5c0.1-15.2,1.3-29.2,6-42.5c8.1-23.1,24.5-36,48.6-39.2c11.2-1.5,22.3-1.2,33.2,1.5
			c17.6,4.4,30.3,14.8,37.7,31.4c4.5,10,6.6,20.6,7.7,31.4c1.5,14.9,1.1,29.8-1.8,44.5c-1.6,8.4-4.1,16.5-8.3,24
			c-7.5,13.5-18.8,22.4-33.7,26.3c-16.7,4.3-33.3,4.2-49.7-1.6c-14.4-5-24.5-14.9-30.9-28.5C620,160.4,618.5,143.9,618.3,128.5z
			 M709.4,128.2c-0.9-10.8-1.6-20.8-2.7-30.8c-0.6-5.6-2.4-11-6.3-15.2c-5.3-5.7-12.3-5.9-19.5-5.1c-6.9,0.8-11.8,4.6-14.2,11.1
			c-1.5,4.2-2.8,8.6-3.4,13c-2,14.5-1.7,29.1-0.9,43.7c0.4,7.1,1.2,14.3,3.9,21c4.8,11.8,21.1,16.4,31.6,8.9
			c5.2-3.7,7.5-9.3,8.3-15.1C707.7,148.9,708.4,138.2,709.4,128.2z"/>
		<path class="st8" d="M1067.2,167.7c1.5-15.8,2.6-31.7,4.6-47.5c1.9-15.3,5.4-30.3,11.9-44.4c3.4-7.3,7.7-14,13.8-19.4
			c7.4-6.5,16.2-9.9,25.9-10.5c11.4-0.7,22.3,1.1,31.8,7.9c6.9,4.9,11.8,11.4,15.5,18.9c6.3,12.6,9.6,26,12,39.8
			c4.1,23.6,4.8,47.5,5.7,71.4c0.2,5.1-0.1,10.1-2.9,14.7c-2.6,4.3-6.6,6.8-11.3,7.4c-6,0.8-12.1,0.9-18-1.3c-6-2.3-8.8-6.9-9.3-13
			c-0.5-6.1-0.5-12.1-0.5-18.2c0-2-0.7-2.7-2.6-2.6c-11.7,0-23.5,0.1-35.2,0c-2.1,0-2.7,0.8-2.7,2.8c0,5-0.3,10-0.4,15
			c-0.2,11.8-8.2,18.2-19.8,17.7c-5.6-0.2-10.7-1.5-14.4-6.2c-2.3-2.9-3.4-6.3-3.5-9.9c-0.1-7.5,0-15,0-22.5
			C1067.5,167.7,1067.4,167.7,1067.2,167.7z M1125.8,143.8c5.7,0,11.5,0,17.2,0c1.5,0,2.3-0.4,2.2-2.1c-1.1-14.8-2-29.6-5.5-44.1
			c-1.3-5.4-3-10.8-6.6-15.2c-4.9-6.2-14.3-5.8-18,1.1c-2.1,4-3.8,8.4-4.7,12.8c-3.1,14.8-3.6,29.9-4.2,45c-0.1,2,0.6,2.6,2.6,2.6
			C1114.4,143.8,1120.1,143.8,1125.8,143.8z"/>
		<path class="st8" d="M1549.7,45.8c10.7,0,21.5,0.9,31.7,5c14,5.6,22.2,16,24.8,30.8c0.6,3.2,1,6.5,0.8,9.7
			c-0.4,9.7-6.9,14.3-15.4,15.3c-5.6,0.7-11.4,0.4-15.1-4.5c-2.3-3.1-3.6-7.1-5.1-10.7c-0.6-1.4-0.8-2.9-1.1-4.3
			c-1.6-8.3-7.4-11.5-14.1-12.2c-3.3-0.4-6.7-0.3-9.9,0c-5.8,0.5-10.4,4.6-12.1,10.4c-3.2,11.1,0.6,20.9,11,25.8
			c6.9,3.3,14.5,5.2,21.8,7.8c7.4,2.6,15.1,4.8,22.2,8.1c14.5,6.7,20.6,18.9,20.4,34.6c-0.1,7.6-1.4,14.9-4.8,21.8
			c-4.5,9.1-11.8,15.1-20.9,19.1c-12.1,5.2-24.9,6.5-37.9,6.4c-10.5-0.1-20.8-1.4-30.5-5.6c-11.9-5.2-19.7-14-22.7-26.7
			c-2.2-9.6,3.3-17.1,13.1-18.2c1.8-0.2,3.7-0.3,5.5-0.3c6.1-0.2,11,2.3,14.7,7.1c1.1,1.4,2.2,2.7,3.3,4.1c3.2,4.3,7.3,7.5,12.8,7.8
			c4.9,0.2,10.1,0.6,14.8-0.5c9.4-2.1,13-13.2,7.4-21.6c-3.8-5.7-9.6-8.3-15.6-10.7c-7.7-3-15.6-5.4-23.2-8.5
			c-4.8-1.9-9.5-4.2-13.8-6.9c-9.1-5.7-14.8-14-16.8-24.7c-2.1-11-1.3-21.8,2.8-32.2c3.8-9.6,10.9-16.2,20.3-20.3
			C1528.1,47.2,1538.7,46.2,1549.7,45.8z"/>
		<path class="st8" d="M516.7,126.3c0,10.9,0.3,21.9,3.1,32.5c1,3.9,2.6,7.8,4.8,11.2c4.2,6.7,10.9,7.9,18.2,7.1
			c7.6-0.8,12.3-4.8,14.5-12c1.7-5.4,3.8-10.5,8.5-14.1c7.8-5.8,22.4-4.1,28,3.3c3,4,3.4,8.4,2.7,13.1c-3,20.7-16.1,34.8-36.7,39.1
			c-14,2.9-28.1,3.2-42.1-0.2c-17.3-4.2-29.4-14.6-36.6-30.8c-4.9-11.2-6.9-23.1-7.8-35.2c-1.1-15.9-0.6-31.7,3.4-47.1
			c3.5-13.8,9.8-26,21.4-34.9c7.6-5.9,16.3-9.3,25.7-10.9c12.5-2.2,25-2.1,37.4,1.2c20.7,5.5,34.1,21.1,36.4,42.5
			c0.3,2.9,0.5,6,0,8.9c-1,6.5-5.1,10.7-11.4,12.1c-4.2,0.9-8.6,1.2-12.9,0.9c-7.8-0.6-12.6-5.9-14.7-15.4c-0.5-2.4-1-4.7-1.4-7.1
			c-1.7-8-5.6-12.3-13.7-13.4c-10.8-1.5-17.1,1.2-21.5,10.7c-1.3,2.7-2.4,5.8-2.7,8.8c-1.3,9.9-2.2,19.8-3.2,29.7
			C516.3,126.2,516.5,126.2,516.7,126.3z"/>
		<path class="st8" d="M1256.8,127.2c-0.2,12.1-0.1,24.2,3.9,35.8c4.7,13.7,14.9,16.7,27.7,12.5c3.6-1.2,5.8-4.1,7.3-7.5
			c1.3-3.1,2.4-6.4,3.8-9.5c5.8-12.5,24.6-15.2,33.4-4.9c3.6,4.1,3.9,9.1,3.1,14.2c-1.7,10.7-5.9,20.3-14.2,27.6
			c-7.3,6.4-15.9,9.9-25.3,11.6c-13.2,2.3-26.3,2.4-39.4-0.9c-17.1-4.3-29.1-14.5-36.2-30.5c-5.2-11.6-7.2-23.9-7.9-36.4
			c-0.8-13.8-0.7-27.7,2.3-41.3c2.3-10.4,5.7-20.3,12.1-29.1c7.6-10.4,17.8-17,30.1-20.2c14.6-3.9,29.3-3.9,44-0.1
			c19.6,5.1,33.6,21.1,35.8,41.3c0.3,3,0.7,6.2,0.3,9.2c-1,7-5.1,11.6-12,13c-4.1,0.8-8.5,1.1-12.6,0.8c-7.2-0.7-11.5-5.2-13.5-11.9
			c-1-3.6-1.7-7.3-2.5-10.9c-2-8.6-7.4-13.1-16.3-13.3c-11.2-0.2-17.4,4-20.3,14.9c-1.8,6.8-2.7,13.9-3.4,20.9
			C1256.4,117.3,1256.8,122.3,1256.8,127.2z"/>
		<path class="st8" d="M1008.6,135.3c0,16.6,0.1,33.2-0.1,49.7c0,3.8-0.7,7.6-1.7,11.3c-1.5,5.1-5.4,8-10.4,9.2
			c-6.1,1.5-12.4,1.5-18.5,0c-7.1-1.7-11.7-7.7-11.9-16c-0.2-10.5,0.1-21,0-31.5c0-25.6-0.1-51.2,0-76.7c0-2.1-0.6-2.8-2.7-2.7
			c-7,0.1-14,0.3-21,0c-5.6-0.2-10.8-1.9-13.7-7.2c-4.2-7.7-2.5-19.9,9.8-22.3c2.3-0.4,4.6-0.8,6.9-0.8c28.3-0.1,56.7-0.1,85,0.1
			c3.8,0,7.8,0.9,11.3,2.5c6.1,2.8,7.7,8.4,7.1,14.6c-0.5,5.7-3.4,9.9-8.8,11.6c-3.8,1.2-8,1.5-12,1.7c-5.6,0.2-11.2,0-16.7-0.1
			c-2.1-0.1-2.6,0.8-2.6,2.8C1008.6,99.3,1008.6,117.3,1008.6,135.3z"/>
		<path class="st8" d="M1434.2,134.6c0,16.9,0.1,33.8-0.1,50.7c0,3.7-0.7,7.5-1.7,11c-1.5,5-5.4,7.9-10.4,9.1
			c-6.1,1.5-12.2,1.4-18.3,0c-6.9-1.6-11.6-7.2-12-15.1c-0.4-7.8-0.1-15.7-0.1-23.5c0-28.5,0-57,0.1-85.5c0-2.4-0.8-3-3-2.9
			c-6.9,0.1-13.8,0.3-20.7,0c-5.6-0.2-10.8-1.9-13.7-7.2c-4.3-7.9-2.2-20,9.8-22.3c2.5-0.5,5.1-0.8,7.7-0.8
			c27.8-0.1,55.7-0.1,83.5,0.1c4,0,8.2,0.8,11.8,2.4c6,2.6,7.8,8,7.4,14.3c-0.4,5.9-3.3,10.3-8.9,12.1c-3.7,1.2-7.8,1.5-11.8,1.7
			c-5.6,0.2-11.2,0-16.7-0.1c-2.2-0.1-2.9,0.6-2.8,2.8C1434.3,99.1,1434.2,116.8,1434.2,134.6z"/>
		<path class="st8" d="M498.3,300.9c6.4-7.1,14.1-9.7,22.8-9.5c8.7,0.2,16.2,3,20.3,11.9c1.4-1.4,2.4-2.7,3.6-3.8
			c6.4-6.1,13.9-8.8,22.8-7.9c5.1,0.5,10.1,1.4,14.2,4.8c4.9,4.1,7.4,9.6,7.7,15.7c0.5,11.5,0.5,23,0.6,34.5c0.1,6.7,0,13.5,0,20.4
			c-4.2,0-8.2,0-12.6,0c-0.1-1-0.2-2-0.2-3c0-15.5,0-31-0.1-46.5c0-12.9-8-16.3-18.9-15c-9.7,1.2-14.1,9.8-14.1,17
			c0,14.8,0,29.7,0,44.5c0,1,0,1.9,0,3.1c-4.4,0-8.4,0-12.7,0c0-1.1,0-2.1,0-3c0-14.8,0-29.7,0-44.5c0-4.2-0.3-8.4-3-11.9
			c-4.2-5.6-10.3-5.8-16.5-5.2c-5,0.5-9.1,2.9-11.7,7.2c-1,1.7-1.8,3.8-1.8,5.8c-0.1,16.2-0.1,32.5-0.1,48.7c0,1,0,1.9,0,3
			c-4.4,0-8.3,0-12.6,0c0-0.7-0.1-1.4-0.1-2.1c0-23.2,0-46.5-0.1-69.7c0-2.1,0.7-2.6,2.6-2.5c2.4,0.1,4.8,0.1,7.2,0
			c1.7-0.1,2.4,0.6,2.4,2.3C498,296.8,498.2,298.5,498.3,300.9z"/>
		<path class="st8" d="M1253.8,367c-4.4,0-8.4,0-12.8,0c0-0.9,0-1.8,0-2.7c0-14.7,0-29.3,0-44c0-1.8,0-3.7-0.3-5.5
			c-1.1-7.7-4.5-11.2-12.1-12.4c-7.5-1.1-14.2,0.4-18.7,7.1c-1.1,1.6-1.8,3.8-1.8,5.7c-0.1,16.2-0.1,32.5-0.1,48.7c0,1,0,1.9,0,3
			c-4.3,0-8.3,0-12.5,0c0-24.6,0-49.2,0-74.3c3.5,0,7.1-0.1,10.6,0.1c0.4,0,1.2,1.1,1.2,1.7c0.2,1.9,0.1,3.8,0.4,5.8
			c6.3-6.5,14-9.2,22.6-9c8.8,0.2,16.4,3,20.3,11.5c3.1-2.6,5.7-5.4,8.9-7.3c9.5-5.8,19.6-5.6,29.3-0.8c7,3.5,9.8,10.3,10.2,17.8
			c0.5,8.4,0.5,16.8,0.5,25.2c0.1,8.7,0,17.5,0,26.2c0,1-0.1,2-0.2,3c-4.2,0-8.2,0-12.6,0c0-1,0-1.9,0-2.9c0-15,0.1-30-0.1-45
			c0-3-0.4-6.2-1.3-9.1c-1.3-4.3-4.7-6.9-9.2-7.4c-3.1-0.3-6.4-0.6-9.4,0c-7.7,1.3-13.1,8.1-13.1,16c0,15.1,0,30.2,0,45.2
			C1253.8,364.9,1253.8,365.9,1253.8,367z"/>
		<path class="st8" d="M1022.1,300.5c0.3-2.7,0.6-5.1,0.8-7.6c3.7,0,7.4,0,11.2,0c0.1,0.8,0.1,1.6,0.1,2.3c0,23.8,0.1,47.7-0.1,71.5
			c-0.1,19.3-14,30.2-32.2,29.7c-8.8-0.2-16.8-3-23.5-9c-3.7-3.3-3.6-3.4-0.4-7c1.2-1.4,2.4-2.7,3.6-4.1c1.9,1.7,3.5,3.4,5.3,4.8
			c7.2,5.5,15.2,6.5,23.6,3.4c6.5-2.4,9.7-7.6,10.5-14.3c0.4-3.2,0.1-6.4,0.1-9.9c-1.2,1-2.2,1.9-3.3,2.8
			c-10.5,8.2-31.8,9.2-40.9-8.9c-7.9-15.9-8.3-32.5-0.1-48.3c8.6-16.5,30.2-19.3,43.6-6.4C1021,299.7,1021.4,299.9,1022.1,300.5z
			 M1021.6,329.9c0-5,0-10,0-15c0-0.9,0-1.9-0.4-2.7c-3.3-5.8-8.1-9.5-14.9-10c-7.3-0.5-13.7,1.5-17.4,8.4
			c-6.1,11.6-6.5,23.8-1.7,35.7c5.1,12.7,21.2,15.5,30.5,5.8c2.5-2.6,4.2-5.4,3.9-9.3C1021.3,338.5,1021.6,334.2,1021.6,329.9z"/>
		<path class="st8" d="M908.1,322.2c0-3.3,0.4-6.2-0.1-9c-1-6.1-4.7-10-10.9-11.1c-6.1-1.1-12.1-0.7-16.8,3.8c-1.6,1.6-2.4,4-3.7,6
			c-0.4,0.6-1,1.4-1.6,1.4c-3.6,0.1-7.3,0.1-11.2,0.1c0-4.6,1.7-8.4,4.6-11.6c7.1-8,16.4-10.6,26.8-10.4c6,0.2,11.7,1.5,16.7,5.2
			c6.9,5.1,9.1,12.4,9.1,20.6c0,11.9-0.1,23.8,0.2,35.7c0.1,4.7,1.3,9.3,2,14.3c-3.8,0-7.9,0-12-0.1c-0.5,0-1.2-0.8-1.4-1.4
			c-0.6-1.9-0.9-3.9-1.4-6.2c-0.8,0.7-1.4,1.2-2.1,1.8c-9.3,8.4-24.4,9.6-34.6,2.8c-13.5-9.1-12.6-29.4,1.7-37.2
			c5.9-3.2,12.3-4.6,18.9-4.7C897.6,322.1,902.7,322.2,908.1,322.2z M908.3,331.3c-0.6-0.1-0.8-0.2-1-0.2c-4,0-8-0.2-12,0.1
			c-3.7,0.3-7.4,0.8-11,1.7c-5.9,1.5-9.6,6.6-9.3,12.3c0.3,6.2,4,10.6,10.2,11.7c8.6,1.6,15.8-1.1,21.3-7.9c0.8-1,1.7-2.3,1.7-3.5
			C908.4,340.9,908.3,336.2,908.3,331.3z"/>
		<path class="st8" d="M702.3,367.1c-4.6,0-8.9,0-13.5,0c-0.6-2.4-1.1-4.8-1.8-7.5c-0.7,0.6-1.4,1.2-2,1.8
			c-9.2,8.3-24.3,9.6-34.4,2.9c-13.8-9.1-12.9-29.6,1.7-37.4c5.8-3.1,12.2-4.5,18.7-4.6c5.1-0.1,10.3,0,15.4,0
			c1.8-10.4-1.4-18.2-10.5-20.2c-10.3-2.2-19.5,2.5-20.9,11.1c-4.1,0-8.2,0-12.6,0c0-4.5,1.7-8.2,4.6-11.4
			c7-7.8,16.1-10.5,26.3-10.4c6,0.1,11.8,1.3,16.7,4.9c7.1,5.1,9.5,12.3,9.5,20.7c0,11.5-0.2,23,0.2,34.5c0.1,4.7,1.4,9.3,2.2,14
			C702,365.9,702.1,366.4,702.3,367.1z M686.8,331.1c-8.2,0.1-16.1-0.5-23.7,1.7c-6,1.7-9.7,6.5-9.6,12.4
			c0.2,6.2,3.8,10.6,10.1,11.8c8,1.5,14.8-0.7,20.4-6.6c1.2-1.2,2.5-2.8,2.7-4.4C687.1,341.1,686.8,336.2,686.8,331.1z"/>
		<path class="st8" d="M1096.9,333.6c-0.9,9.2,4.8,19.5,13,22.9c8.2,3.4,18.9,3.2,28.5-8.3c2.5,1.9,4.9,3.8,7.5,5.9
			c-2.9,4.9-6.8,8.5-11.7,10.9c-12.3,6-31.2,5.1-42.1-7.8c-5.1-6-7.4-13.1-8-20.8c-0.8-10.4,0.4-20.4,5.8-29.6
			c9.5-16.1,32.3-20.5,46.1-8.6c5.8,5,8.8,11.7,9.9,19.1c0.8,5.3,0.9,10.7,1.3,16.4C1130.1,333.6,1113.5,333.6,1096.9,333.6z
			 M1134.4,323.1c-0.2-1.8-0.3-3.4-0.6-5c-1.8-12.5-12.6-19.3-24-15c-7,2.6-12.5,11.4-12.5,20
			C1109.5,323.1,1121.8,323.1,1134.4,323.1z"/>
		<path class="st8" d="M1412.1,333.6c-16.9,0-33.5,0-50.1,0c-1.2,8.3,4.4,18.6,12.2,22.6c9.2,4.8,18.8,2.2,29.4-7.9
			c2.4,1.9,4.9,3.9,7.5,5.9c-4.4,6.8-10.2,11.3-17.9,13.1c-11.7,2.7-22.7,1.5-32.2-6.5c-5.8-4.9-9.4-11.2-10.8-18.6
			c-1.9-10.6-1.6-21,2.7-31.1c7.2-17.1,27.2-24.6,43.5-16.3c7.5,3.8,11.5,10.4,13.8,18.1C1412.1,319.5,1412.3,326.3,1412.1,333.6z
			 M1399.7,323.1c-0.6-3.2-0.9-6.1-1.7-8.9c-3.3-11-15.2-15.8-25.2-10c-7.2,4.1-9.5,11.1-10.6,18.9
			C1374.6,323.1,1386.9,323.1,1399.7,323.1z"/>
		<path class="st8" d="M1506.3,367c0-12.9,0-25.5,0-38.2c0-4.2,0.1-8.3-0.1-12.5c-0.5-11.2-7.4-15-17.5-13.9
			c-6.2,0.7-10.8,4.1-14.1,9.3c-0.8,1.3-1.3,3.1-1.3,4.7c-0.1,15.8-0.1,31.7-0.1,47.5c0,1,0,2,0,3.1c-4.2,0-8.3,0-12.5,0
			c0-24.6,0-49.3,0-74.1c3.8,0,7.6,0,11.7,0c0.2,2.8,0.4,5.7,0.6,9.1c1.5-1.6,2.7-2.9,3.9-4c7.8-7,21.3-8.8,30.5-4.1
			c6.6,3.3,9.6,9.2,10.8,16.1c0.5,2.8,0.7,5.6,0.7,8.5c0.1,15.5,0,31,0,46.5c0,0.7-0.1,1.3-0.1,2.1
			C1514.6,367,1510.6,367,1506.3,367z"/>
		<path class="st8" d="M753.4,292.8c3.9,0,7.7,0,11.7,0c0.2,2.9,0.3,5.7,0.4,8c3.9-2.5,7.6-5.5,11.8-7.5c6.2-2.9,12.8-2.7,19.3-0.8
			c8.6,2.5,13.9,9.7,14.6,20c0.4,5.9,0.4,11.8,0.4,17.7c0.1,11.3,0,22.7,0,34c0,0.9,0,1.8,0,2.8c-4.3,0-8.4,0-12.8,0c0-1,0-2,0-2.9
			c0-15.2,0.1-30.5,0-45.7c-0.1-13.5-9.1-19.5-21.9-14.9c-5,1.8-8.4,5.3-10.7,9.9c-0.4,0.8-0.5,1.9-0.5,2.9c0,15.8,0,31.7,0,47.5
			c0,1,0,2,0,3.2c-4.1,0-8.1,0-12.4,0C753.4,342.4,753.4,317.7,753.4,292.8z"/>
		<path class="st8" d="M1576.2,292.7c0-5.4,0.1-10.4,0-15.4c0-2,0.6-2.7,2.6-2.6c3.2,0.1,6.5,0,10.1,0c0,6,0,11.8,0,18
			c3.9,0,7.4,0.2,11-0.1c2.4-0.1,3.3,0.6,3,3c-0.2,2.1,0,4.3,0,6.8c-4.6,0-9,0-13.7,0c-0.1,1.3-0.2,2.3-0.2,3.2
			c0,13.6,0,27.2,0,40.7c0,9.8,2.3,11.8,12,10.8c0.7-0.1,1.3-0.1,2.2-0.1c0,3.3,0,6.5,0,9.9c-5.6,1.5-11.4,2.3-17,0.1
			c-6.7-2.7-9.2-8.5-9.5-15.2c-0.4-10.7-0.3-21.3-0.3-32c0-5.6,0-11.3,0-17.3c-4.5,0-8.8,0-13.4,0c0-3.2-0.1-6.1,0.1-8.9
			c0-0.4,1.4-1,2.1-1C1568.6,292.7,1572.2,292.7,1576.2,292.7z"/>
	</g>
</g>
</svg>
