 <svg  version="1.0" xmlns="http://www.w3.org/2000/svg"  width="300.000000pt" height="300.000000pt" viewBox="0 0 300.000000 300.000000"  preserveAspectRatio="xMidYMid meet">  <g transform="translate(0.000000,300.000000) scale(0.100000,-0.100000)" fill="#004aad" stroke="none"> <path d="M1134 2508 c-309 -233 -475 -364 -487 -385 -11 -19 -19 -52 -19 -79 0 -41 -4 -50 -44 -88 -38 -36 -44 -48 -44 -83 0 -41 19 -67 67 -92 18 -9 23 -20 23 -48 0 -29 -8 -43 -45 -77 -39 -37 -45 -48 -45 -82 0 -31 6 -46 27 -66 16 -14 36 -28 46 -31 14 -5 17 -19 17 -78 l0 -72 -45 -41 c-39 -37 -45 -48 -45 -82 0 -42 19 -68 68 -93 20 -10 22 -19 22 -82 0 -69 0 -69 -45 -112 -57 -55 -62 -102 -16 -148 16 -16 37 -29 45 -29 14 0 16 -16 15 -114 -1 -126 8 -155 60 -199 17 -14 45 -30 63 -36 529 -167 853 -261 879 -256 67 15 114 85 107 161 l-3 36 266 -1 266 -2 31 26 c16 14 36 25 44 25 8 0 22 8 31 18 15 17 17 72 17 591 l0 572 30 10 c35 13 39 24 41 107 2 67 -16 102 -53 102 -17 0 -18 13 -18 208 0 190 -2 210 -18 225 -10 10 -26 17 -35 17 -9 0 -28 12 -42 26 l-25 25 -267 -2 -266 -1 2 93 c1 74 5 96 18 104 8 6 29 19 47 30 l31 21 3 103 c3 125 -8 146 -70 138 -33 -4 -38 -2 -38 15 0 11 -13 33 -29 49 -60 60 -49 66 -567 -323z m534 296 l22 -15 0 -1280 0 -1280 -25 -24 c-15 -16 -36 -25 -55 -25 -43 0 -871 258 -894 278 -39 36 -46 66 -46 211 0 140 0 140 26 158 79 54 91 87 48 129 -19 19 -31 24 -50 20 l-25 -7 3 108 3 107 42 29 c50 33 62 66 39 102 -12 19 -25 25 -51 25 l-35 0 0 105 0 104 44 30 c49 34 59 51 50 87 -7 28 -32 44 -68 44 -25 0 -26 2 -26 70 0 63 2 71 26 87 47 32 74 62 74 81 0 33 -34 65 -68 65 -30 0 -32 3 -32 36 0 20 7 47 16 60 20 28 929 711 947 711 7 0 23 -7 35 -16z m130 -164 c3 -78 1 -86 -20 -102 -13 -10 -27 -18 -33 -18 -6 0 -10 37 -10 92 0 82 2 94 20 105 11 7 25 11 30 9 6 -1 11 -40 13 -86z m477 -525 l0 -110 35 -5 35 -5 0 -65 0 -65 -35 -5 -35 -5 -2 -735 -2 -735 -268 -3 -268 -2 0 117 0 118 215 5 215 5 -2 121 c-1 145 -14 235 -48 341 -33 105 -81 183 -127 208 l-37 20 -78 -28 c-43 -15 -91 -27 -108 -27 -26 0 -30 3 -30 29 0 26 4 31 34 36 123 23 228 134 247 261 20 139 -86 294 -225 327 l-50 12 -3 152 -3 153 270 -2 270 -3 0 -110z m73 -8 c2 -66 1 -76 -13 -71 -20 8 -23 158 -2 152 8 -3 13 -31 15 -81z m-1623 -147 c6 -9 -5 -21 -62 -66 -21 -16 -33 -35 -33 -50 0 -13 -3 -24 -7 -24 -15 0 -43 35 -43 55 0 48 123 120 145 85z m1083 -89 c86 -25 172 -145 172 -242 0 -129 -100 -253 -212 -261 l-33 -3 -3 258 -2 257 22 0 c13 0 38 -4 56 -9z m577 -131 c29 -5 30 -7 33 -67 l3 -62 -33 -3 -33 -3 -3 -592 c-2 -518 -4 -593 -17 -593 -13 0 -15 86 -15 699 0 551 3 700 13 704 8 2 14 -10 17 -37 4 -36 8 -41 35 -46z m-1662 -84 c4 -10 -12 -27 -44 -50 -36 -27 -49 -42 -49 -61 0 -29 -7 -31 -32 -8 -35 31 -14 79 50 113 45 23 68 25 75 6z m-3 -376 c0 -10 -10 -25 -22 -31 -40 -20 -68 -52 -68 -76 0 -27 -7 -29 -32 -6 -37 33 -15 78 57 116 42 22 65 21 65 -3z m1275 -37 c29 -29 85 -137 85 -164 0 -9 3 -19 7 -23 27 -26 56 -363 34 -390 -16 -19 -371 -21 -383 -3 -4 7 -8 135 -8 284 l0 273 23 4 c12 3 42 8 67 11 25 3 56 12 70 20 39 22 74 18 105 -12z m-1272 -339 c-3 -8 -9 -14 -14 -14 -21 0 -79 -63 -79 -86 0 -28 -7 -30 -32 -7 -26 23 -22 55 10 86 54 51 133 66 115 21z"/> <path d="M953 1966 c-84 -40 -118 -80 -134 -156 -44 -206 99 -594 291 -790 123 -125 199 -147 324 -90 71 32 106 72 106 120 0 38 -64 164 -96 189 -26 21 -36 22 -94 17 l-65 -7 -37 38 c-75 78 -125 185 -142 306 -7 47 -7 48 43 96 46 44 51 54 51 92 0 58 -58 178 -98 202 -43 24 -68 22 -149 -17z m135 -22 c30 -20 72 -113 72 -156 0 -25 -10 -44 -45 -81 -40 -43 -45 -54 -45 -95 0 -110 80 -287 164 -360 35 -30 41 -32 106 -31 44 1 76 -3 85 -11 20 -16 75 -132 75 -157 0 -52 -101 -117 -182 -116 -131 2 -293 195 -409 485 -62 157 -78 346 -36 428 18 37 34 51 85 77 71 37 97 40 130 17z"/> </g> </svg> 