<svg xmlns="http://www.w3.org/2000/svg" xmlns:xlink="http://www.w3.org/1999/xlink" width="250" zoomAndPan="magnify" viewBox="0 0 187.5 52.499999" height="70" preserveAspectRatio="xMidYMid meet" version="1.0"><defs><g/><clipPath id="57397fd565"><path d="M 0.636719 0 L 186.367188 0 L 186.367188 52.003906 L 0.636719 52.003906 Z M 0.636719 0 " clip-rule="nonzero"/></clipPath><clipPath id="61699d4cbb"><path d="M 12.339844 4.453125 L 42.800781 4.453125 L 42.800781 47.542969 L 12.339844 47.542969 Z M 12.339844 4.453125 " clip-rule="nonzero"/></clipPath></defs><g clip-path="url(#57397fd565)"><path fill="#ffffff" d="M 0.636719 0 L 186.367188 0 L 186.367188 52.003906 L 0.636719 52.003906 Z M 0.636719 0 " fill-opacity="1" fill-rule="nonzero"/><path fill="#ffffff" d="M 0.636719 0 L 186.367188 0 L 186.367188 52.003906 L 0.636719 52.003906 Z M 0.636719 0 " fill-opacity="1" fill-rule="nonzero"/></g><g fill="#004aad" fill-opacity="1"><g transform="translate(50.825511, 25.024405)"><g><path d="M 8.171875 0.25 C 5.765625 0.25 4 -0.472656 2.875 -1.921875 C 1.75 -3.367188 1.1875 -5.53125 1.1875 -8.40625 C 1.1875 -14.15625 3.570312 -17.03125 8.34375 -17.03125 C 10.132812 -17.03125 11.566406 -16.59375 12.640625 -15.71875 C 13.710938 -14.851562 14.320312 -13.597656 14.46875 -11.953125 C 14.53125 -11.265625 14.363281 -10.75 13.96875 -10.40625 C 13.570312 -10.0625 13.046875 -9.890625 12.390625 -9.890625 L 12.234375 -9.890625 C 11.578125 -9.890625 11.097656 -10.070312 10.796875 -10.4375 C 10.492188 -10.800781 10.296875 -11.328125 10.203125 -12.015625 C 10.109375 -12.648438 9.898438 -13.097656 9.578125 -13.359375 C 9.265625 -13.628906 8.800781 -13.765625 8.1875 -13.765625 C 7.351562 -13.765625 6.753906 -13.363281 6.390625 -12.5625 C 6.023438 -11.757812 5.84375 -10.375 5.84375 -8.40625 C 5.84375 -6.988281 5.941406 -5.894531 6.140625 -5.125 C 6.347656 -4.351562 6.628906 -3.820312 6.984375 -3.53125 C 7.335938 -3.25 7.738281 -3.109375 8.1875 -3.109375 C 8.707031 -3.109375 9.117188 -3.195312 9.421875 -3.375 C 9.734375 -3.550781 9.960938 -3.859375 10.109375 -4.296875 C 10.316406 -4.941406 10.570312 -5.425781 10.875 -5.75 C 11.1875 -6.082031 11.65625 -6.25 12.28125 -6.25 L 12.3125 -6.25 C 12.96875 -6.25 13.492188 -6.0625 13.890625 -5.6875 C 14.285156 -5.320312 14.421875 -4.785156 14.296875 -4.078125 C 14.054688 -2.597656 13.40625 -1.503906 12.34375 -0.796875 C 11.289062 -0.0976562 9.898438 0.25 8.171875 0.25 Z M 8.171875 0.25 "/></g></g></g><g fill="#004aad" fill-opacity="1"><g transform="translate(66.208499, 25.024405)"><g><path d="M 8.34375 0.25 C 3.59375 0.25 1.21875 -2.632812 1.21875 -8.40625 C 1.21875 -14.15625 3.59375 -17.03125 8.34375 -17.03125 C 13.070312 -17.03125 15.4375 -14.15625 15.4375 -8.40625 C 15.4375 -2.632812 13.070312 0.25 8.34375 0.25 Z M 8.34375 -3.03125 C 8.988281 -3.03125 9.488281 -3.191406 9.84375 -3.515625 C 10.195312 -3.835938 10.445312 -4.390625 10.59375 -5.171875 C 10.738281 -5.953125 10.8125 -7.03125 10.8125 -8.40625 C 10.8125 -9.78125 10.738281 -10.851562 10.59375 -11.625 C 10.445312 -12.40625 10.195312 -12.957031 9.84375 -13.28125 C 9.488281 -13.601562 8.988281 -13.765625 8.34375 -13.765625 C 7.707031 -13.765625 7.207031 -13.601562 6.84375 -13.28125 C 6.476562 -12.957031 6.21875 -12.40625 6.0625 -11.625 C 5.914062 -10.851562 5.84375 -9.78125 5.84375 -8.40625 C 5.84375 -7.03125 5.914062 -5.953125 6.0625 -5.171875 C 6.21875 -4.390625 6.476562 -3.835938 6.84375 -3.515625 C 7.207031 -3.191406 7.707031 -3.03125 8.34375 -3.03125 Z M 8.34375 -3.03125 "/></g></g></g><g fill="#004aad" fill-opacity="1"><g transform="translate(82.875426, 25.024405)"><g><path d="M 12.84375 -16.796875 C 14.164062 -16.796875 14.8125 -16.109375 14.78125 -14.734375 C 14.769531 -10.515625 14.769531 -6.289062 14.78125 -2.0625 C 14.800781 -1.394531 14.628906 -0.882812 14.265625 -0.53125 C 13.910156 -0.175781 13.40625 0 12.75 0 L 12.390625 0 C 11.253906 0 10.441406 -0.507812 9.953125 -1.53125 L 5.28125 -11.25 L 5.234375 -11.25 C 5.265625 -9.53125 5.3125 -7.941406 5.375 -6.484375 C 5.445312 -5.035156 5.53125 -3.582031 5.625 -2.125 C 5.707031 -0.707031 5.09375 0 3.78125 0 C 3.144531 0 2.65625 -0.175781 2.3125 -0.53125 C 1.976562 -0.882812 1.820312 -1.394531 1.84375 -2.0625 C 1.851562 -6.289062 1.851562 -10.515625 1.84375 -14.734375 C 1.820312 -15.398438 1.988281 -15.910156 2.34375 -16.265625 C 2.707031 -16.617188 3.21875 -16.796875 3.875 -16.796875 L 5.109375 -16.796875 C 6.242188 -16.796875 7.050781 -16.285156 7.53125 -15.265625 L 11.3125 -7.390625 L 11.359375 -7.390625 C 11.328125 -8.710938 11.28125 -9.972656 11.21875 -11.171875 C 11.15625 -12.367188 11.082031 -13.53125 11 -14.65625 C 10.90625 -16.082031 11.519531 -16.796875 12.84375 -16.796875 Z M 12.84375 -16.796875 "/></g></g></g><g fill="#004aad" fill-opacity="1"><g transform="translate(99.493904, 25.024405)"><g><path d="M 13.59375 -15.171875 C 13.59375 -14.648438 13.414062 -14.242188 13.0625 -13.953125 C 12.707031 -13.660156 12.191406 -13.515625 11.515625 -13.515625 C 11.117188 -13.535156 10.742188 -13.546875 10.390625 -13.546875 C 10.035156 -13.546875 9.675781 -13.546875 9.3125 -13.546875 L 9.3125 -8.40625 C 9.3125 -7.34375 9.3125 -6.285156 9.3125 -5.234375 C 9.3125 -4.179688 9.3125 -3.125 9.3125 -2.0625 C 9.320312 -1.394531 9.148438 -0.882812 8.796875 -0.53125 C 8.441406 -0.175781 7.929688 0 7.265625 0 L 6.828125 0 C 5.460938 0 4.78125 -0.6875 4.78125 -2.0625 C 4.789062 -3.113281 4.800781 -4.164062 4.8125 -5.21875 C 4.820312 -6.28125 4.828125 -7.34375 4.828125 -8.40625 C 4.828125 -9.257812 4.820312 -10.117188 4.8125 -10.984375 C 4.800781 -11.847656 4.796875 -12.703125 4.796875 -13.546875 C 4.460938 -13.546875 4.117188 -13.546875 3.765625 -13.546875 C 3.421875 -13.546875 3.0625 -13.535156 2.6875 -13.515625 C 2.007812 -13.515625 1.492188 -13.660156 1.140625 -13.953125 C 0.785156 -14.242188 0.609375 -14.648438 0.609375 -15.171875 C 0.609375 -16.253906 1.296875 -16.796875 2.671875 -16.796875 L 11.53125 -16.796875 C 12.90625 -16.796875 13.59375 -16.253906 13.59375 -15.171875 Z M 13.59375 -15.171875 "/></g></g></g><g fill="#004aad" fill-opacity="1"><g transform="translate(113.689869, 25.024405)"><g><path d="M 7.734375 -17.03125 C 8.785156 -17.03125 9.707031 -16.785156 10.5 -16.296875 C 11.289062 -15.804688 11.953125 -14.992188 12.484375 -13.859375 C 13.015625 -12.734375 13.421875 -11.21875 13.703125 -9.3125 C 13.984375 -7.40625 14.148438 -5.03125 14.203125 -2.1875 C 14.210938 -1.488281 14.039062 -0.945312 13.6875 -0.5625 C 13.332031 -0.1875 12.828125 0 12.171875 0 L 11.796875 0 C 10.421875 0 9.734375 -0.628906 9.734375 -1.890625 C 9.734375 -2.210938 9.734375 -2.523438 9.734375 -2.828125 C 9.734375 -3.140625 9.726562 -3.445312 9.71875 -3.75 L 5.421875 -3.75 C 5.421875 -3.5 5.414062 -3.226562 5.40625 -2.9375 C 5.40625 -2.65625 5.40625 -2.363281 5.40625 -2.0625 C 5.40625 -0.6875 4.726562 0 3.375 0 C 2.726562 0 2.222656 -0.175781 1.859375 -0.53125 C 1.503906 -0.882812 1.335938 -1.398438 1.359375 -2.078125 C 1.367188 -2.742188 1.382812 -3.375 1.40625 -3.96875 C 1.425781 -4.570312 1.453125 -5.144531 1.484375 -5.6875 C 1.671875 -8.550781 2.023438 -10.8125 2.546875 -12.46875 C 3.078125 -14.125 3.773438 -15.296875 4.640625 -15.984375 C 5.503906 -16.679688 6.535156 -17.03125 7.734375 -17.03125 Z M 5.484375 -6.640625 L 9.625 -6.640625 C 9.519531 -8.453125 9.367188 -9.863281 9.171875 -10.875 C 8.984375 -11.882812 8.738281 -12.59375 8.4375 -13 C 8.144531 -13.414062 7.796875 -13.625 7.390625 -13.625 C 6.984375 -13.625 6.644531 -13.414062 6.375 -13 C 6.113281 -12.59375 5.914062 -11.882812 5.78125 -10.875 C 5.644531 -9.863281 5.546875 -8.453125 5.484375 -6.640625 Z M 5.484375 -6.640625 "/></g></g></g><g fill="#004aad" fill-opacity="1"><g transform="translate(129.242435, 25.024405)"><g><path d="M 8.171875 0.25 C 5.765625 0.25 4 -0.472656 2.875 -1.921875 C 1.75 -3.367188 1.1875 -5.53125 1.1875 -8.40625 C 1.1875 -14.15625 3.570312 -17.03125 8.34375 -17.03125 C 10.132812 -17.03125 11.566406 -16.59375 12.640625 -15.71875 C 13.710938 -14.851562 14.320312 -13.597656 14.46875 -11.953125 C 14.53125 -11.265625 14.363281 -10.75 13.96875 -10.40625 C 13.570312 -10.0625 13.046875 -9.890625 12.390625 -9.890625 L 12.234375 -9.890625 C 11.578125 -9.890625 11.097656 -10.070312 10.796875 -10.4375 C 10.492188 -10.800781 10.296875 -11.328125 10.203125 -12.015625 C 10.109375 -12.648438 9.898438 -13.097656 9.578125 -13.359375 C 9.265625 -13.628906 8.800781 -13.765625 8.1875 -13.765625 C 7.351562 -13.765625 6.753906 -13.363281 6.390625 -12.5625 C 6.023438 -11.757812 5.84375 -10.375 5.84375 -8.40625 C 5.84375 -6.988281 5.941406 -5.894531 6.140625 -5.125 C 6.347656 -4.351562 6.628906 -3.820312 6.984375 -3.53125 C 7.335938 -3.25 7.738281 -3.109375 8.1875 -3.109375 C 8.707031 -3.109375 9.117188 -3.195312 9.421875 -3.375 C 9.734375 -3.550781 9.960938 -3.859375 10.109375 -4.296875 C 10.316406 -4.941406 10.570312 -5.425781 10.875 -5.75 C 11.1875 -6.082031 11.65625 -6.25 12.28125 -6.25 L 12.3125 -6.25 C 12.96875 -6.25 13.492188 -6.0625 13.890625 -5.6875 C 14.285156 -5.320312 14.421875 -4.785156 14.296875 -4.078125 C 14.054688 -2.597656 13.40625 -1.503906 12.34375 -0.796875 C 11.289062 -0.0976562 9.898438 0.25 8.171875 0.25 Z M 8.171875 0.25 "/></g></g></g><g fill="#004aad" fill-opacity="1"><g transform="translate(144.625423, 25.024405)"><g><path d="M 13.59375 -15.171875 C 13.59375 -14.648438 13.414062 -14.242188 13.0625 -13.953125 C 12.707031 -13.660156 12.191406 -13.515625 11.515625 -13.515625 C 11.117188 -13.535156 10.742188 -13.546875 10.390625 -13.546875 C 10.035156 -13.546875 9.675781 -13.546875 9.3125 -13.546875 L 9.3125 -8.40625 C 9.3125 -7.34375 9.3125 -6.285156 9.3125 -5.234375 C 9.3125 -4.179688 9.3125 -3.125 9.3125 -2.0625 C 9.320312 -1.394531 9.148438 -0.882812 8.796875 -0.53125 C 8.441406 -0.175781 7.929688 0 7.265625 0 L 6.828125 0 C 5.460938 0 4.78125 -0.6875 4.78125 -2.0625 C 4.789062 -3.113281 4.800781 -4.164062 4.8125 -5.21875 C 4.820312 -6.28125 4.828125 -7.34375 4.828125 -8.40625 C 4.828125 -9.257812 4.820312 -10.117188 4.8125 -10.984375 C 4.800781 -11.847656 4.796875 -12.703125 4.796875 -13.546875 C 4.460938 -13.546875 4.117188 -13.546875 3.765625 -13.546875 C 3.421875 -13.546875 3.0625 -13.535156 2.6875 -13.515625 C 2.007812 -13.515625 1.492188 -13.660156 1.140625 -13.953125 C 0.785156 -14.242188 0.609375 -14.648438 0.609375 -15.171875 C 0.609375 -16.253906 1.296875 -16.796875 2.671875 -16.796875 L 11.53125 -16.796875 C 12.90625 -16.796875 13.59375 -16.253906 13.59375 -15.171875 Z M 13.59375 -15.171875 "/></g></g></g><g fill="#004aad" fill-opacity="1"><g transform="translate(158.821388, 25.024405)"><g><path d="M 7.09375 0.25 C 3.863281 0.25 1.941406 -0.847656 1.328125 -3.046875 C 1.148438 -3.710938 1.25 -4.226562 1.625 -4.59375 C 2.007812 -4.96875 2.507812 -5.15625 3.125 -5.15625 L 3.34375 -5.15625 C 3.726562 -5.15625 4.03125 -5.082031 4.25 -4.9375 C 4.46875 -4.789062 4.671875 -4.597656 4.859375 -4.359375 C 5.046875 -4.128906 5.273438 -3.863281 5.546875 -3.5625 C 5.890625 -3.238281 6.457031 -3.078125 7.25 -3.078125 C 8.519531 -3.078125 9.15625 -3.570312 9.15625 -4.5625 C 9.15625 -5.125 8.96875 -5.5625 8.59375 -5.875 C 8.226562 -6.1875 7.75 -6.445312 7.15625 -6.65625 C 6.570312 -6.875 5.953125 -7.09375 5.296875 -7.3125 C 4.640625 -7.53125 4.015625 -7.8125 3.421875 -8.15625 C 2.835938 -8.5 2.359375 -8.972656 1.984375 -9.578125 C 1.617188 -10.191406 1.4375 -10.988281 1.4375 -11.96875 C 1.4375 -13.789062 1.96875 -15.085938 3.03125 -15.859375 C 4.09375 -16.640625 5.601562 -17.03125 7.5625 -17.03125 C 9.445312 -17.03125 10.867188 -16.644531 11.828125 -15.875 C 12.796875 -15.113281 13.335938 -14.015625 13.453125 -12.578125 C 13.492188 -11.910156 13.328125 -11.40625 12.953125 -11.0625 C 12.578125 -10.726562 12.082031 -10.5625 11.46875 -10.5625 C 10.851562 -10.5625 10.414062 -10.738281 10.15625 -11.09375 C 9.894531 -11.445312 9.691406 -11.96875 9.546875 -12.65625 C 9.429688 -13.164062 9.203125 -13.515625 8.859375 -13.703125 C 8.523438 -13.898438 8.066406 -14 7.484375 -14 C 6.796875 -14 6.3125 -13.820312 6.03125 -13.46875 C 5.757812 -13.113281 5.625 -12.644531 5.625 -12.0625 C 5.625 -11.5 5.769531 -11.050781 6.0625 -10.71875 C 6.351562 -10.394531 6.738281 -10.132812 7.21875 -9.9375 C 7.707031 -9.738281 8.238281 -9.5625 8.8125 -9.40625 C 9.382812 -9.257812 9.957031 -9.085938 10.53125 -8.890625 C 11.101562 -8.703125 11.628906 -8.445312 12.109375 -8.125 C 12.597656 -7.8125 12.988281 -7.390625 13.28125 -6.859375 C 13.570312 -6.335938 13.71875 -5.664062 13.71875 -4.84375 C 13.71875 -3.175781 13.160156 -1.910156 12.046875 -1.046875 C 10.929688 -0.179688 9.28125 0.25 7.09375 0.25 Z M 7.09375 0.25 "/></g></g></g><g fill="#004aad" fill-opacity="1"><g transform="translate(52.776174, 42.643545)"><g><path d="M 2.296875 -7.890625 L 2.328125 -7.015625 C 2.898438 -7.691406 3.679688 -8.03125 4.671875 -8.03125 C 5.773438 -8.03125 6.523438 -7.609375 6.921875 -6.765625 C 7.179688 -7.148438 7.519531 -7.457031 7.9375 -7.6875 C 8.363281 -7.914062 8.863281 -8.03125 9.4375 -8.03125 C 11.164062 -8.03125 12.046875 -7.113281 12.078125 -5.28125 L 12.078125 0 L 10.734375 0 L 10.734375 -5.203125 C 10.734375 -5.765625 10.601562 -6.1875 10.34375 -6.46875 C 10.082031 -6.75 9.648438 -6.890625 9.046875 -6.890625 C 8.546875 -6.890625 8.128906 -6.738281 7.796875 -6.4375 C 7.460938 -6.144531 7.269531 -5.742188 7.21875 -5.234375 L 7.21875 0 L 5.859375 0 L 5.859375 -5.171875 C 5.859375 -6.316406 5.296875 -6.890625 4.171875 -6.890625 C 3.296875 -6.890625 2.691406 -6.515625 2.359375 -5.765625 L 2.359375 0 L 1.015625 0 L 1.015625 -7.890625 Z M 2.296875 -7.890625 "/></g></g></g><g fill="#004aad" fill-opacity="1"><g transform="translate(69.410637, 42.643545)"><g><path d="M 5.890625 0 C 5.816406 -0.15625 5.753906 -0.429688 5.703125 -0.828125 C 5.078125 -0.179688 4.328125 0.140625 3.453125 0.140625 C 2.679688 0.140625 2.046875 -0.078125 1.546875 -0.515625 C 1.046875 -0.953125 0.796875 -1.507812 0.796875 -2.1875 C 0.796875 -3.007812 1.109375 -3.644531 1.734375 -4.09375 C 2.359375 -4.550781 3.238281 -4.78125 4.375 -4.78125 L 5.6875 -4.78125 L 5.6875 -5.40625 C 5.6875 -5.875 5.539062 -6.25 5.25 -6.53125 C 4.96875 -6.8125 4.554688 -6.953125 4.015625 -6.953125 C 3.535156 -6.953125 3.128906 -6.828125 2.796875 -6.578125 C 2.472656 -6.335938 2.3125 -6.046875 2.3125 -5.703125 L 0.953125 -5.703125 C 0.953125 -6.097656 1.09375 -6.476562 1.375 -6.84375 C 1.65625 -7.207031 2.035156 -7.492188 2.515625 -7.703125 C 2.992188 -7.921875 3.519531 -8.03125 4.09375 -8.03125 C 5 -8.03125 5.707031 -7.800781 6.21875 -7.34375 C 6.738281 -6.894531 7.007812 -6.273438 7.03125 -5.484375 L 7.03125 -1.84375 C 7.03125 -1.125 7.125 -0.546875 7.3125 -0.109375 L 7.3125 0 Z M 3.65625 -1.03125 C 4.070312 -1.03125 4.46875 -1.140625 4.84375 -1.359375 C 5.226562 -1.578125 5.507812 -1.859375 5.6875 -2.203125 L 5.6875 -3.828125 L 4.625 -3.828125 C 2.96875 -3.828125 2.140625 -3.34375 2.140625 -2.375 C 2.140625 -1.957031 2.28125 -1.628906 2.5625 -1.390625 C 2.84375 -1.148438 3.207031 -1.03125 3.65625 -1.03125 Z M 3.65625 -1.03125 "/></g></g></g><g fill="#004aad" fill-opacity="1"><g transform="translate(81.08326, 42.643545)"><g><path d="M 2.296875 -7.890625 L 2.34375 -6.90625 C 2.945312 -7.65625 3.734375 -8.03125 4.703125 -8.03125 C 6.367188 -8.03125 7.210938 -7.09375 7.234375 -5.21875 L 7.234375 0 L 5.875 0 L 5.875 -5.21875 C 5.875 -5.789062 5.742188 -6.210938 5.484375 -6.484375 C 5.234375 -6.753906 4.835938 -6.890625 4.296875 -6.890625 C 3.859375 -6.890625 3.472656 -6.769531 3.140625 -6.53125 C 2.804688 -6.300781 2.550781 -6 2.375 -5.625 L 2.375 0 L 1.015625 0 L 1.015625 -7.890625 Z M 2.296875 -7.890625 "/></g></g></g><g fill="#004aad" fill-opacity="1"><g transform="translate(92.872462, 42.643545)"><g><path d="M 5.890625 0 C 5.816406 -0.15625 5.753906 -0.429688 5.703125 -0.828125 C 5.078125 -0.179688 4.328125 0.140625 3.453125 0.140625 C 2.679688 0.140625 2.046875 -0.078125 1.546875 -0.515625 C 1.046875 -0.953125 0.796875 -1.507812 0.796875 -2.1875 C 0.796875 -3.007812 1.109375 -3.644531 1.734375 -4.09375 C 2.359375 -4.550781 3.238281 -4.78125 4.375 -4.78125 L 5.6875 -4.78125 L 5.6875 -5.40625 C 5.6875 -5.875 5.539062 -6.25 5.25 -6.53125 C 4.96875 -6.8125 4.554688 -6.953125 4.015625 -6.953125 C 3.535156 -6.953125 3.128906 -6.828125 2.796875 -6.578125 C 2.472656 -6.335938 2.3125 -6.046875 2.3125 -5.703125 L 0.953125 -5.703125 C 0.953125 -6.097656 1.09375 -6.476562 1.375 -6.84375 C 1.65625 -7.207031 2.035156 -7.492188 2.515625 -7.703125 C 2.992188 -7.921875 3.519531 -8.03125 4.09375 -8.03125 C 5 -8.03125 5.707031 -7.800781 6.21875 -7.34375 C 6.738281 -6.894531 7.007812 -6.273438 7.03125 -5.484375 L 7.03125 -1.84375 C 7.03125 -1.125 7.125 -0.546875 7.3125 -0.109375 L 7.3125 0 Z M 3.65625 -1.03125 C 4.070312 -1.03125 4.46875 -1.140625 4.84375 -1.359375 C 5.226562 -1.578125 5.507812 -1.859375 5.6875 -2.203125 L 5.6875 -3.828125 L 4.625 -3.828125 C 2.96875 -3.828125 2.140625 -3.34375 2.140625 -2.375 C 2.140625 -1.957031 2.28125 -1.628906 2.5625 -1.390625 C 2.84375 -1.148438 3.207031 -1.03125 3.65625 -1.03125 Z M 3.65625 -1.03125 "/></g></g></g><g fill="#004aad" fill-opacity="1"><g transform="translate(104.545085, 42.643545)"><g><path d="M 0.703125 -4.015625 C 0.703125 -5.242188 0.984375 -6.21875 1.546875 -6.9375 C 2.117188 -7.664062 2.875 -8.03125 3.8125 -8.03125 C 4.78125 -8.03125 5.53125 -7.691406 6.0625 -7.015625 L 6.140625 -7.890625 L 7.359375 -7.890625 L 7.359375 -0.1875 C 7.359375 0.832031 7.054688 1.632812 6.453125 2.21875 C 5.847656 2.8125 5.035156 3.109375 4.015625 3.109375 C 3.453125 3.109375 2.894531 2.984375 2.34375 2.734375 C 1.800781 2.492188 1.382812 2.164062 1.09375 1.75 L 1.796875 0.9375 C 2.378906 1.644531 3.085938 2 3.921875 2 C 4.578125 2 5.085938 1.8125 5.453125 1.4375 C 5.828125 1.070312 6.015625 0.554688 6.015625 -0.109375 L 6.015625 -0.78125 C 5.472656 -0.164062 4.734375 0.140625 3.796875 0.140625 C 2.878906 0.140625 2.132812 -0.226562 1.5625 -0.96875 C 0.988281 -1.71875 0.703125 -2.734375 0.703125 -4.015625 Z M 2.0625 -3.859375 C 2.0625 -2.972656 2.242188 -2.273438 2.609375 -1.765625 C 2.972656 -1.253906 3.484375 -1 4.140625 -1 C 4.984375 -1 5.609375 -1.382812 6.015625 -2.15625 L 6.015625 -5.765625 C 5.597656 -6.515625 4.976562 -6.890625 4.15625 -6.890625 C 3.5 -6.890625 2.984375 -6.632812 2.609375 -6.125 C 2.242188 -5.613281 2.0625 -4.859375 2.0625 -3.859375 Z M 2.0625 -3.859375 "/></g></g></g><g fill="#004aad" fill-opacity="1"><g transform="translate(116.472722, 42.643545)"><g><path d="M 4.296875 0.140625 C 3.222656 0.140625 2.347656 -0.207031 1.671875 -0.90625 C 1.003906 -1.613281 0.671875 -2.554688 0.671875 -3.734375 L 0.671875 -3.96875 C 0.671875 -4.757812 0.820312 -5.460938 1.125 -6.078125 C 1.425781 -6.691406 1.84375 -7.171875 2.375 -7.515625 C 2.914062 -7.859375 3.5 -8.03125 4.125 -8.03125 C 5.15625 -8.03125 5.953125 -7.691406 6.515625 -7.015625 C 7.085938 -6.347656 7.375 -5.382812 7.375 -4.125 L 7.375 -3.5625 L 2.03125 -3.5625 C 2.050781 -2.78125 2.273438 -2.148438 2.703125 -1.671875 C 3.140625 -1.191406 3.695312 -0.953125 4.375 -0.953125 C 4.84375 -0.953125 5.242188 -1.046875 5.578125 -1.234375 C 5.910156 -1.429688 6.203125 -1.691406 6.453125 -2.015625 L 7.265625 -1.375 C 6.609375 -0.363281 5.617188 0.140625 4.296875 0.140625 Z M 4.125 -6.921875 C 3.582031 -6.921875 3.125 -6.722656 2.75 -6.328125 C 2.382812 -5.929688 2.160156 -5.378906 2.078125 -4.671875 L 6.03125 -4.671875 L 6.03125 -4.765625 C 5.988281 -5.453125 5.800781 -5.984375 5.46875 -6.359375 C 5.132812 -6.734375 4.6875 -6.921875 4.125 -6.921875 Z M 4.125 -6.921875 "/></g></g></g><g fill="#004aad" fill-opacity="1"><g transform="translate(127.934049, 42.643545)"><g><path d="M 2.296875 -7.890625 L 2.328125 -7.015625 C 2.898438 -7.691406 3.679688 -8.03125 4.671875 -8.03125 C 5.773438 -8.03125 6.523438 -7.609375 6.921875 -6.765625 C 7.179688 -7.148438 7.519531 -7.457031 7.9375 -7.6875 C 8.363281 -7.914062 8.863281 -8.03125 9.4375 -8.03125 C 11.164062 -8.03125 12.046875 -7.113281 12.078125 -5.28125 L 12.078125 0 L 10.734375 0 L 10.734375 -5.203125 C 10.734375 -5.765625 10.601562 -6.1875 10.34375 -6.46875 C 10.082031 -6.75 9.648438 -6.890625 9.046875 -6.890625 C 8.546875 -6.890625 8.128906 -6.738281 7.796875 -6.4375 C 7.460938 -6.144531 7.269531 -5.742188 7.21875 -5.234375 L 7.21875 0 L 5.859375 0 L 5.859375 -5.171875 C 5.859375 -6.316406 5.296875 -6.890625 4.171875 -6.890625 C 3.296875 -6.890625 2.691406 -6.515625 2.359375 -5.765625 L 2.359375 0 L 1.015625 0 L 1.015625 -7.890625 Z M 2.296875 -7.890625 "/></g></g></g><g fill="#004aad" fill-opacity="1"><g transform="translate(144.568512, 42.643545)"><g><path d="M 4.296875 0.140625 C 3.222656 0.140625 2.347656 -0.207031 1.671875 -0.90625 C 1.003906 -1.613281 0.671875 -2.554688 0.671875 -3.734375 L 0.671875 -3.96875 C 0.671875 -4.757812 0.820312 -5.460938 1.125 -6.078125 C 1.425781 -6.691406 1.84375 -7.171875 2.375 -7.515625 C 2.914062 -7.859375 3.5 -8.03125 4.125 -8.03125 C 5.15625 -8.03125 5.953125 -7.691406 6.515625 -7.015625 C 7.085938 -6.347656 7.375 -5.382812 7.375 -4.125 L 7.375 -3.5625 L 2.03125 -3.5625 C 2.050781 -2.78125 2.273438 -2.148438 2.703125 -1.671875 C 3.140625 -1.191406 3.695312 -0.953125 4.375 -0.953125 C 4.84375 -0.953125 5.242188 -1.046875 5.578125 -1.234375 C 5.910156 -1.429688 6.203125 -1.691406 6.453125 -2.015625 L 7.265625 -1.375 C 6.609375 -0.363281 5.617188 0.140625 4.296875 0.140625 Z M 4.125 -6.921875 C 3.582031 -6.921875 3.125 -6.722656 2.75 -6.328125 C 2.382812 -5.929688 2.160156 -5.378906 2.078125 -4.671875 L 6.03125 -4.671875 L 6.03125 -4.765625 C 5.988281 -5.453125 5.800781 -5.984375 5.46875 -6.359375 C 5.132812 -6.734375 4.6875 -6.921875 4.125 -6.921875 Z M 4.125 -6.921875 "/></g></g></g><g fill="#004aad" fill-opacity="1"><g transform="translate(156.029838, 42.643545)"><g><path d="M 2.296875 -7.890625 L 2.34375 -6.90625 C 2.945312 -7.65625 3.734375 -8.03125 4.703125 -8.03125 C 6.367188 -8.03125 7.210938 -7.09375 7.234375 -5.21875 L 7.234375 0 L 5.875 0 L 5.875 -5.21875 C 5.875 -5.789062 5.742188 -6.210938 5.484375 -6.484375 C 5.234375 -6.753906 4.835938 -6.890625 4.296875 -6.890625 C 3.859375 -6.890625 3.472656 -6.769531 3.140625 -6.53125 C 2.804688 -6.300781 2.550781 -6 2.375 -5.625 L 2.375 0 L 1.015625 0 L 1.015625 -7.890625 Z M 2.296875 -7.890625 "/></g></g></g><g fill="#004aad" fill-opacity="1"><g transform="translate(167.81904, 42.643545)"><g><path d="M 2.859375 -9.796875 L 2.859375 -7.890625 L 4.328125 -7.890625 L 4.328125 -6.84375 L 2.859375 -6.84375 L 2.859375 -1.953125 C 2.859375 -1.640625 2.921875 -1.398438 3.046875 -1.234375 C 3.179688 -1.078125 3.40625 -1 3.71875 -1 C 3.875 -1 4.085938 -1.03125 4.359375 -1.09375 L 4.359375 0 C 4.003906 0.09375 3.660156 0.140625 3.328125 0.140625 C 2.722656 0.140625 2.265625 -0.0390625 1.953125 -0.40625 C 1.648438 -0.769531 1.5 -1.285156 1.5 -1.953125 L 1.5 -6.84375 L 0.0625 -6.84375 L 0.0625 -7.890625 L 1.5 -7.890625 L 1.5 -9.796875 Z M 2.859375 -9.796875 "/></g></g></g><path fill="#004aad" d="M 27.324219 30.859375 C 27.007812 30.164062 26.347656 29.714844 25.640625 29.714844 C 25.417969 29.714844 25.191406 29.765625 24.984375 29.859375 C 24.566406 30.046875 24.066406 29.925781 23.710938 29.550781 C 23.21875 29.03125 22.527344 28.1875 22.035156 27.109375 C 21.546875 26.027344 21.367188 24.953125 21.300781 24.253906 C 21.300781 24.203125 21.296875 24.15625 21.296875 24.113281 C 21.296875 23.648438 21.527344 23.25 21.902344 23.082031 C 22.296875 22.902344 22.597656 22.574219 22.757812 22.15625 C 22.933594 21.683594 22.910156 21.136719 22.691406 20.65625 L 22.066406 19.273438 C 21.84375 18.789062 21.445312 18.410156 20.972656 18.234375 C 20.554688 18.078125 20.109375 18.089844 19.71875 18.269531 L 18.460938 18.839844 C 17.636719 19.210938 17.042969 19.953125 16.832031 20.882812 C 16.507812 22.324219 16.492188 24.871094 18.28125 28.816406 C 20.070312 32.753906 21.996094 34.417969 23.296875 35.125 C 23.757812 35.375 24.25 35.5 24.738281 35.5 C 25.136719 35.5 25.535156 35.414062 25.90625 35.246094 L 27.164062 34.671875 C 27.558594 34.496094 27.859375 34.167969 28.019531 33.746094 C 28.195312 33.273438 28.175781 32.730469 27.957031 32.246094 Z M 27.324219 30.859375 " fill-opacity="1" fill-rule="nonzero"/><g clip-path="url(#61699d4cbb)"><path fill="#004aad" d="M 41.664062 21.53125 L 41.625 21.53125 L 41.625 15.503906 C 41.625 14.90625 41.140625 14.421875 40.542969 14.421875 L 40.351562 14.421875 C 40.210938 14.046875 39.855469 13.777344 39.433594 13.777344 L 31.261719 13.777344 L 31.261719 10.753906 L 32.398438 10.164062 C 32.746094 9.980469 32.957031 9.625 32.957031 9.238281 L 32.957031 7.023438 C 32.957031 6.65625 32.769531 6.324219 32.457031 6.132812 C 32.144531 5.941406 31.761719 5.929688 31.433594 6.097656 L 31.261719 6.1875 C 31.261719 5.570312 30.921875 5.019531 30.375 4.746094 C 29.832031 4.476562 29.195312 4.535156 28.707031 4.898438 L 14.738281 15.386719 C 14.121094 15.851562 13.753906 16.589844 13.753906 17.359375 L 13.753906 18.3125 C 12.953125 18.753906 12.492188 19.273438 12.398438 19.867188 C 12.328125 20.28125 12.410156 20.648438 12.640625 20.960938 C 12.941406 21.371094 13.4375 21.566406 13.753906 21.65625 L 13.753906 23.078125 C 12.953125 23.515625 12.492188 24.039062 12.398438 24.628906 C 12.328125 25.046875 12.410156 25.414062 12.640625 25.722656 C 12.941406 26.132812 13.4375 26.332031 13.753906 26.421875 L 13.753906 28.875 C 12.953125 29.3125 12.492188 29.835938 12.398438 30.429688 C 12.328125 30.84375 12.410156 31.210938 12.640625 31.519531 C 12.941406 31.933594 13.4375 32.128906 13.753906 32.21875 L 13.753906 34.671875 C 12.953125 35.113281 12.492188 35.632812 12.398438 36.226562 C 12.328125 36.640625 12.410156 37.007812 12.640625 37.316406 C 12.941406 37.726562 13.4375 37.925781 13.753906 38.015625 L 13.753906 40.773438 C 13.753906 42.003906 14.539062 43.074219 15.710938 43.441406 L 28.585938 47.429688 C 28.789062 47.492188 28.996094 47.523438 29.203125 47.523438 C 29.632812 47.523438 30.054688 47.382812 30.417969 47.117188 C 30.953125 46.722656 31.261719 46.113281 31.261719 45.441406 L 31.261719 44.359375 L 39.433594 44.359375 C 39.855469 44.359375 40.210938 44.089844 40.351562 43.71875 L 40.542969 43.71875 C 41.140625 43.71875 41.625 43.230469 41.625 42.632812 L 41.625 24.984375 L 41.664062 24.984375 C 42.257812 24.984375 42.742188 24.5 42.742188 23.90625 L 42.742188 22.617188 C 42.742188 22.019531 42.257812 21.53125 41.664062 21.53125 Z M 40.945312 15.503906 L 40.945312 17.578125 C 40.828125 17.535156 40.707031 17.507812 40.578125 17.507812 L 40.414062 17.507812 L 40.414062 15.101562 L 40.542969 15.101562 C 40.761719 15.101562 40.945312 15.28125 40.945312 15.503906 Z M 31.75 6.703125 C 31.910156 6.621094 32.050781 6.683594 32.101562 6.714844 C 32.15625 6.746094 32.277344 6.839844 32.277344 7.023438 L 32.277344 9.238281 C 32.277344 9.375 32.203125 9.496094 32.082031 9.5625 L 31.261719 9.988281 L 31.261719 6.957031 Z M 13.1875 20.550781 C 13.070312 20.394531 13.03125 20.207031 13.070312 19.976562 C 13.152344 19.464844 13.753906 19.066406 14.246094 18.820312 C 14.457031 18.714844 14.667969 18.632812 14.824219 18.574219 C 14.867188 18.558594 14.910156 18.550781 14.953125 18.550781 C 15.070312 18.550781 15.179688 18.605469 15.253906 18.707031 C 15.292969 18.761719 15.3125 18.828125 15.3125 18.90625 C 15.3125 19.046875 15.230469 19.175781 15.101562 19.242188 C 14.777344 19.402344 14.480469 19.59375 14.21875 19.808594 C 13.921875 20.054688 13.753906 20.425781 13.753906 20.820312 L 13.753906 20.9375 C 13.546875 20.859375 13.320312 20.734375 13.1875 20.550781 Z M 13.1875 25.316406 C 13.070312 25.160156 13.03125 24.96875 13.070312 24.738281 C 13.152344 24.230469 13.753906 23.832031 14.246094 23.585938 C 14.457031 23.480469 14.667969 23.398438 14.824219 23.339844 C 14.867188 23.324219 14.910156 23.316406 14.953125 23.316406 C 15.070312 23.316406 15.179688 23.371094 15.253906 23.46875 C 15.292969 23.527344 15.3125 23.59375 15.3125 23.667969 C 15.3125 23.8125 15.234375 23.945312 15.101562 24.007812 C 14.765625 24.175781 14.476562 24.359375 14.21875 24.574219 C 13.921875 24.820312 13.753906 25.1875 13.753906 25.585938 L 13.753906 25.703125 C 13.546875 25.625 13.320312 25.5 13.1875 25.316406 Z M 13.1875 31.113281 C 13.070312 30.957031 13.03125 30.765625 13.070312 30.535156 C 13.152344 30.027344 13.753906 29.628906 14.242188 29.386719 C 14.421875 29.296875 14.625 29.210938 14.824219 29.136719 C 14.867188 29.121094 14.910156 29.113281 14.953125 29.113281 C 15.070312 29.113281 15.179688 29.167969 15.25 29.269531 C 15.292969 29.324219 15.3125 29.390625 15.3125 29.46875 C 15.3125 29.609375 15.230469 29.738281 15.101562 29.804688 C 14.777344 29.964844 14.480469 30.15625 14.21875 30.371094 C 13.921875 30.617188 13.753906 30.988281 13.753906 31.382812 L 13.753906 31.5 C 13.546875 31.421875 13.320312 31.296875 13.1875 31.113281 Z M 13.753906 37.179688 L 13.753906 37.296875 C 13.554688 37.222656 13.328125 37.101562 13.1875 36.910156 C 13.070312 36.753906 13.03125 36.566406 13.070312 36.335938 C 13.152344 35.824219 13.753906 35.425781 14.246094 35.179688 C 14.457031 35.078125 14.667969 34.992188 14.824219 34.933594 C 14.867188 34.917969 14.910156 34.910156 14.957031 34.910156 C 15.070312 34.910156 15.183594 34.964844 15.25 35.0625 C 15.292969 35.117188 15.3125 35.1875 15.3125 35.261719 C 15.3125 35.40625 15.234375 35.535156 15.101562 35.601562 C 14.777344 35.761719 14.480469 35.953125 14.21875 36.167969 C 13.921875 36.414062 13.753906 36.785156 13.753906 37.179688 Z M 30.578125 45.441406 C 30.578125 45.894531 30.375 46.304688 30.011719 46.570312 C 29.65625 46.832031 29.210938 46.90625 28.789062 46.777344 L 15.914062 42.789062 C 15.027344 42.515625 14.433594 41.703125 14.433594 40.773438 L 14.433594 37.746094 C 14.433594 37.746094 14.433594 37.742188 14.433594 37.738281 L 14.433594 37.179688 C 14.433594 36.988281 14.515625 36.808594 14.65625 36.691406 C 14.875 36.511719 15.125 36.347656 15.402344 36.210938 C 15.769531 36.03125 15.996094 35.667969 15.996094 35.261719 C 15.996094 35.042969 15.929688 34.835938 15.804688 34.664062 C 15.53125 34.285156 15.03125 34.132812 14.585938 34.296875 C 14.539062 34.3125 14.488281 34.332031 14.433594 34.355469 L 14.433594 31.382812 C 14.433594 31.191406 14.515625 31.011719 14.65625 30.894531 C 14.875 30.714844 15.125 30.550781 15.402344 30.414062 C 15.761719 30.238281 15.996094 29.867188 15.996094 29.46875 C 15.996094 29.246094 15.929688 29.046875 15.804688 28.871094 C 15.535156 28.488281 15.035156 28.335938 14.585938 28.496094 C 14.535156 28.515625 14.484375 28.539062 14.433594 28.558594 L 14.433594 25.585938 C 14.433594 25.394531 14.515625 25.214844 14.65625 25.097656 C 14.871094 24.917969 15.113281 24.761719 15.402344 24.621094 C 15.769531 24.441406 15.996094 24.074219 15.996094 23.671875 C 15.996094 23.453125 15.929688 23.246094 15.804688 23.074219 C 15.53125 22.691406 15.03125 22.539062 14.585938 22.699219 C 14.539062 22.71875 14.488281 22.738281 14.433594 22.757812 L 14.433594 20.820312 C 14.433594 20.628906 14.515625 20.449219 14.65625 20.332031 C 14.875 20.152344 15.125 19.988281 15.402344 19.851562 C 15.761719 19.675781 15.996094 19.304688 15.996094 18.90625 C 15.996094 18.683594 15.929688 18.484375 15.804688 18.308594 C 15.53125 17.925781 15.03125 17.773438 14.585938 17.9375 C 14.539062 17.953125 14.488281 17.972656 14.433594 17.996094 L 14.433594 17.359375 C 14.433594 16.800781 14.699219 16.269531 15.144531 15.933594 L 29.117188 5.441406 C 29.398438 5.230469 29.757812 5.199219 30.070312 5.355469 C 30.390625 5.515625 30.578125 5.828125 30.578125 6.1875 Z M 39.433594 43.675781 L 31.261719 43.675781 L 31.261719 39.878906 L 37.742188 39.878906 C 37.929688 39.878906 38.082031 39.726562 38.082031 39.539062 C 38.082031 36.277344 37.914062 32.5625 35.914062 29.738281 C 35.402344 29.019531 34.421875 28.789062 33.679688 29.214844 C 33.054688 29.574219 32.222656 29.78125 31.261719 29.820312 L 31.261719 28.828125 C 33.734375 28.652344 35.695312 26.585938 35.695312 24.070312 C 35.695312 21.550781 33.734375 19.488281 31.261719 19.3125 L 31.261719 14.460938 L 39.433594 14.460938 C 39.601562 14.460938 39.734375 14.59375 39.734375 14.761719 L 39.734375 17.847656 C 39.734375 18.035156 39.886719 18.191406 40.074219 18.191406 L 40.578125 18.191406 C 40.78125 18.191406 40.945312 18.355469 40.945312 18.558594 L 40.945312 19.90625 C 40.945312 20.109375 40.78125 20.273438 40.578125 20.273438 L 40.074219 20.273438 C 39.886719 20.273438 39.734375 20.429688 39.734375 20.617188 L 39.734375 43.375 C 39.734375 43.542969 39.597656 43.675781 39.433594 43.675781 Z M 42.0625 23.90625 C 42.0625 24.125 41.882812 24.304688 41.664062 24.304688 L 41.285156 24.304688 C 41.097656 24.304688 40.945312 24.457031 40.945312 24.644531 L 40.945312 42.632812 C 40.945312 42.855469 40.765625 43.035156 40.542969 43.035156 L 40.414062 43.035156 L 40.414062 20.957031 L 40.578125 20.957031 C 40.707031 20.957031 40.828125 20.929688 40.945312 20.886719 L 40.945312 21.875 C 40.945312 22.0625 41.097656 22.214844 41.285156 22.214844 L 41.664062 22.214844 C 41.882812 22.214844 42.0625 22.394531 42.0625 22.617188 Z M 42.0625 23.90625 " fill-opacity="1" fill-rule="nonzero"/></g></svg>